Coordinates
version=1
nRows=18
nColumns=22
inDegrees=yes

Units are S.I. units (second, meters, Newtons, ...)
If the header above contains a line with 'inDegrees', this indicates whether rotational values are in degrees (yes) or radians (no).

endheader
time	pelvis_tilt	pelvis_list	pelvis_rotation	pelvis_tx	pelvis_ty	pelvis_tz	hip_flexion_r	hip_adduction_r	hip_rotation_r	knee_angle_r	ankle_angle_r	subtalar_angle_r	hip_flexion_l	hip_adduction_l	hip_rotation_l	knee_angle_l	ankle_angle_l	subtalar_angle_l	lumbar_extension	lumbar_bending	lumbar_rotation
      0.01000000	      1.03132007	     -4.06995381	     -6.56514023	     -1.15717971	      1.02506612	     -0.17213046	     -0.03559507	      5.38929047	     -4.52611756	    -12.53136052	     11.18301407	     -2.89495399	      1.61908429	     -2.69538585	     -7.86092732	    -15.01663775	     12.84910329	     -3.86714383	    -10.84673599	      4.11275834	      2.10390851
      0.02000000	      1.03019959	     -4.06766053	     -6.55549813	     -1.15726567	      1.02507182	     -0.17215350	     -0.03046509	      5.38786676	     -4.52651466	    -12.52789504	     11.18126324	     -2.89541807	      1.62195414	     -2.69408867	     -7.86306563	    -15.00797825	     12.84962361	     -3.86791674	    -10.85417830	      4.11969848	      2.10273181
      0.03000000	      1.03478500	     -4.06582939	     -6.52248625	     -1.15732785	      1.02509510	     -0.17221175	     -0.03570568	      5.38491598	     -4.57099972	    -12.51728725	     11.15026059	     -2.90652702	      1.60731746	     -2.68738706	     -7.81658975	    -14.97221794	     12.83211771	     -3.88305681	    -10.85988642	      4.13476553	      2.05980802
      0.04000000	      1.03463175	     -4.06198439	     -6.51614553	     -1.15742747	      1.02510368	     -0.17222106	     -0.03030087	      5.38219973	     -4.57021546	    -12.51451435	     11.15080454	     -2.90704614	      1.60988458	     -2.68452162	     -7.81862992	    -14.96450274	     12.83234301	     -3.88350423	    -10.86757388	      4.14322205	      2.05808239
      0.05000000	      1.03661989	     -4.05854820	     -6.50612519	     -1.15750846	      1.02511685	     -0.17223434	     -0.02545880	      5.37959169	     -4.57340124	    -12.51859927	     11.15016975	     -2.91060834	      1.59927062	     -2.67927479	     -7.80812705	    -14.93571397	     12.82511653	     -3.88639036	    -10.87142553	      4.15759327	      2.02443845
      0.06000000	      1.03708617	     -4.05373717	     -6.50121719	     -1.15761532	      1.02512514	     -0.17223260	     -0.02154189	      5.37601274	     -4.57407820	    -12.51369420	     11.15022598	     -2.91114090	      1.60261525	     -2.67540000	     -7.80647713	    -14.92919063	     12.82398015	     -3.88680380	    -10.87961455	      4.16719191	      2.02254002
      0.07000000	      1.04388746	     -4.04975326	     -6.47797878	     -1.15769667	      1.02514917	     -0.17225539	     -0.02720402	      5.37325749	     -4.58607475	    -12.50708847	     11.14400178	     -2.91613205	      1.58561423	     -2.66700379	     -7.76128846	    -14.89440345	     12.80126913	     -3.89091999	    -10.88771998	      4.18321715	      1.96592478
      0.08000000	      1.04466986	     -4.04468763	     -6.47298397	     -1.15781570	      1.02515642	     -0.17224361	     -0.02357880	      5.37035896	     -4.58854508	    -12.50067181	     11.14389651	     -2.91655053	      1.59009966	     -2.66357900	     -7.75956025	    -14.88878107	     12.80039286	     -3.89140840	    -10.89767277	      4.19117897	      1.96611315
      0.09000000	      1.06762139	     -4.03743258	     -6.42742633	     -1.15790884	      1.02520384	     -0.17228849	     -0.05322974	      5.36166616	     -4.64688075	    -12.47690881	     11.12818962	     -2.92585913	      1.56350956	     -2.64894157	     -7.68102934	    -14.86027069	     12.76523512	     -3.90142342	    -10.92688927	      4.19933352	      1.91050563
      0.10000000	      1.06749317	     -4.03349518	     -6.42420243	     -1.15804333	      1.02520996	     -0.17225756	     -0.04684834	      5.36114329	     -4.64774455	    -12.47253284	     11.12835877	     -2.92619905	      1.56790192	     -2.64826297	     -7.68325027	    -14.85129630	     12.76558457	     -3.90170889	    -10.93800725	      4.20488132	      1.90859790
      0.11000000	      1.06689884	     -4.03003826	     -6.42043557	     -1.15818739	      1.02521527	     -0.17221655	     -0.03928592	      5.36175828	     -4.65023996	    -12.46845992	     11.12776902	     -2.92667073	      1.57215975	     -2.64877400	     -7.68527717	    -14.83963980	     12.76464983	     -3.90171809	    -10.95017386	      4.20891578	      1.90510744
      0.12000000	      1.06828666	     -4.03037041	     -6.41205757	     -1.15831997	      1.02522847	     -0.17217315	     -0.02736131	      5.36443634	     -4.67922397	    -12.47848597	     11.11557505	     -2.93088390	      1.56231813	     -2.65254790	     -7.68388969	    -14.80453969	     12.74684657	     -3.89981993	    -10.96137593	      4.21768727	      1.88055442
      0.13000000	      1.06675060	     -4.02721427	     -6.41145565	     -1.15849235	      1.02523438	     -0.17210032	     -0.01888244	      5.36697358	     -4.68625191	    -12.47049912	     11.11484016	     -2.93144405	      1.56996626	     -2.65503002	     -7.68345590	    -14.79575165	     12.74510718	     -3.89945208	    -10.97715288	      4.21505035	      1.88050993
      0.14000000	      1.06593885	     -4.02904207	     -6.40112451	     -1.15866202	      1.02524676	     -0.17202514	     -0.00161076	      5.37104715	     -4.75709134	    -12.47976069	     11.09380641	     -2.93771058	      1.57292660	     -2.66415673	     -7.67829813	    -14.77676147	     12.71858956	     -3.89371627	    -10.99239783	      4.21443048	      1.88296802
      0.15000000	      1.06286030	     -4.02693991	     -6.40505075	     -1.15885647	      1.02525294	     -0.17192426	      0.00934280	      5.37570269	     -4.76562059	    -12.47077337	     11.09325535	     -2.93828849	      1.58241183	     -2.66910478	     -7.67782564	    -14.76792320	     12.71790637	     -3.89307107	    -11.01063997	      4.20883077	      1.88029825
      0.16000000	      1.05491358	     -4.03310551	     -6.39720326	     -1.15905380	      1.02525273	     -0.17184024	      0.03785318	      5.38444061	     -4.84974174	    -12.48312649	     11.06900331	     -2.94585910	      1.60038377	     -2.68498600	     -7.67536072	    -14.76234407	     12.69967059	     -3.88382774	    -11.02466565	      4.21427774	      1.87990263
      0.17000000	      1.05111573	     -4.03272869	     -6.40103299	     -1.15925044	      1.02525823	     -0.17171665	      0.04909697	      5.39251747	     -4.85847257	    -12.47444297	     11.06837161	     -2.94629302	      1.61084078	     -2.69374308	     -7.67476350	    -14.75361719	     12.69948472	     -3.88303774	    -11.04188785	      4.20260868	      1.87757443
      0.18000000	      1.03882526	     -4.04260286	     -6.39454838	     -1.15944438	      1.02525150	     -0.17163098	      0.07997652	      5.40669348	     -4.93176863	    -12.48470943	     11.04202681	     -2.95264254	      1.63556521	     -2.71470244	     -7.67378857	    -14.75351886	     12.68500357	     -3.87339769	    -11.05089320	      4.20950198	      1.88456937
